<svg width="40" height="40" viewBox="0 0 40 40" fill="none" xmlns="http://www.w3.org/2000/svg">
<path d="M20.6167 0.349976C19.8761 0.350166 19.1355 0.355722 18.395 0.366642C17.445 0.381642 16.935 0.816642 16.8983 1.52664C16.8517 2.39998 16.8883 3.27331 16.8883 4.21498H24.2767C24.2767 3.24498 24.3183 2.31998 24.26 1.39664C24.22 0.744976 23.6733 0.379976 22.835 0.368309C22.095 0.356087 21.3556 0.349976 20.6167 0.349976ZM17.8067 4.88331C18.1733 5.78831 17.5533 6.24664 16.8033 6.68664C16.3219 6.97006 15.8702 7.30117 15.455 7.67498C12.9633 9.94998 11.7567 12.5 12.7 15.5016C12.8683 16.0383 13.1933 16.2583 13.9833 16.25C18.05 16.21 22.1167 16.23 26.1833 16.23C28.3617 16.23 28.555 16.0966 28.81 14.4016C28.8292 14.243 28.837 14.0831 28.8333 13.9233C28.7978 12.5107 28.4066 11.1299 27.6957 9.9086C26.9849 8.68735 25.9775 7.66516 24.7667 6.93664C23.9817 6.38664 22.8767 5.97498 23.2833 4.88331H17.8067ZM18.1567 7.36664C18.2244 7.36361 18.2924 7.36473 18.36 7.36998C17.3312 8.38514 16.4066 9.5007 15.6 10.7C15.0877 11.9217 14.7229 13.2002 14.5133 14.5083C13.43 12.0916 16.0567 7.46998 18.1567 7.36664ZM13.3467 16.79V30.1533H27.89V16.79H13.3467ZM15.1533 18.1866L15.5017 18.1933C15.5765 18.425 15.6256 18.6642 15.6483 18.9066C15.6583 21.8866 15.6533 24.8683 15.6517 27.8483C15.6691 28.0074 15.6579 28.1683 15.6183 28.3233C15.58 28.4266 15.425 28.5016 15.3217 28.59C15.21 28.51 15.0317 28.4433 15 28.3466C14.9606 28.1639 14.9493 27.9761 14.9667 27.79C14.9667 24.8616 14.9617 21.935 14.9733 19.0066C15.0044 18.7278 15.0647 18.4529 15.1533 18.1866ZM27.4483 30.775C25.1783 30.8166 22.9033 30.7916 20.6317 30.7916H14.3317C12.7617 30.7916 12.3367 31.05 12.2917 32.2883C12.2313 34.0445 12.2313 35.8022 12.2917 37.5583C12.3233 38.4766 13.045 39.1366 14.1733 39.34C15.235 39.53 16.4333 39.8066 17.2267 38.8233C17.57 38.4 17.9667 38.4283 18.3933 38.785C19.1167 39.395 21.3433 39.8783 21.9933 39.345C23.0767 38.4566 23.5967 38.6883 24.7717 39.3266C25.1579 39.5105 25.579 39.6095 26.0066 39.617C26.4343 39.6245 26.8586 39.5403 27.251 39.3701C27.6435 39.1999 27.9948 38.9476 28.2816 38.6302C28.5683 38.3128 28.7837 37.9376 28.9133 37.53C29.0006 35.776 28.9984 34.0187 28.9067 32.265C28.859 31.9715 28.768 31.6867 28.6367 31.42C28.47 30.9516 28.1333 30.7616 27.4483 30.775ZM14.3583 32.24C14.4883 32.3983 14.7183 32.5516 14.725 32.715C14.7667 33.4583 14.7467 34.205 14.7467 34.9516C14.7467 35.67 14.7633 36.3916 14.73 37.11C14.7233 37.2566 14.5217 37.3983 14.41 37.5433C14.265 37.3983 13.9933 37.255 13.9917 37.11C13.9609 35.6463 13.9598 34.1821 13.9883 32.7183C13.99 32.5583 14.23 32.3983 14.3583 32.24Z" fill="#4682B4"/>
</svg>
