<svg width="30" height="30" viewBox="0 0 30 30" fill="none" xmlns="http://www.w3.org/2000/svg">
<path d="M12.6875 18.75L10.0525 23.4C10.026 23.4465 10.009 23.4978 10.0027 23.5509C9.99635 23.6041 10.0007 23.658 10.0156 23.7094C10.0462 23.814 10.117 23.9024 10.2125 23.955C13.1294 25.5862 16.8712 25.5862 19.7862 23.955C19.8822 23.9026 19.9535 23.8143 19.9844 23.7094C19.9991 23.6579 20.0034 23.604 19.997 23.5509C19.9905 23.4977 19.9735 23.4464 19.9469 23.4L17.3131 18.75C16.6498 19.2589 15.8366 19.5336 15.0006 19.5312C14.1644 19.5338 13.3509 19.259 12.6875 18.75ZM13.0312 11.0775L10.3212 6.47061C10.2944 6.42443 10.2585 6.3841 10.2158 6.352C10.173 6.3199 10.1243 6.29669 10.0725 6.28374C9.96626 6.25781 9.85408 6.27512 9.76061 6.33186C6.88998 8.04186 5.01873 11.2819 4.97373 14.6225C4.97253 14.6767 4.98201 14.7305 5.00163 14.7811C5.02126 14.8316 5.05064 14.8777 5.08811 14.9169C5.16311 14.995 5.26561 15.0387 5.37436 15.0394L10.7181 15.0831C10.6094 14.2542 10.7784 13.4126 11.1987 12.69C11.6145 11.9647 12.2589 11.3976 13.0312 11.0775ZM19.2812 15.1719L24.6256 15.1287C24.6791 15.1285 24.732 15.1175 24.7811 15.0965C24.8303 15.0754 24.8748 15.0448 24.9119 15.0062C24.9874 14.9273 25.0285 14.8217 25.0262 14.7125C24.9806 11.3712 23.11 8.13124 20.2394 6.42186C20.1461 6.36507 20.0342 6.34754 19.9281 6.37311C19.876 6.38592 19.8271 6.40906 19.7841 6.44116C19.7412 6.47326 19.7051 6.51367 19.6781 6.55999L16.9687 11.1662C17.741 11.4864 18.3855 12.0534 18.8012 12.7787C19.222 13.5015 19.3908 14.3428 19.2812 15.1719ZM18.125 15C18.125 15.8288 17.7957 16.6236 17.2097 17.2097C16.6236 17.7957 15.8288 18.125 15 18.125C14.1712 18.125 13.3763 17.7957 12.7903 17.2097C12.2042 16.6236 11.875 15.8288 11.875 15C11.875 14.1712 12.2042 13.3763 12.7903 12.7903C13.3763 12.2042 14.1712 11.875 15 11.875C15.8288 11.875 16.6236 12.2042 17.2097 12.7903C17.7957 13.3763 18.125 14.1712 18.125 15Z" fill="#FF9564"/>
<path fill-rule="evenodd" clip-rule="evenodd" d="M15 26.25C21.2131 26.25 26.25 21.2131 26.25 15C26.25 8.78687 21.2131 3.75 15 3.75C8.78687 3.75 3.75 8.78687 3.75 15C3.75 21.2131 8.78687 26.25 15 26.25ZM15 27.5C21.9037 27.5 27.5 21.9037 27.5 15C27.5 8.09625 21.9037 2.5 15 2.5C8.09625 2.5 2.5 8.09625 2.5 15C2.5 21.9037 8.09625 27.5 15 27.5Z" fill="#FF9564"/>
</svg>
