<svg width="40" height="40" viewBox="0 0 40 40" fill="none" xmlns="http://www.w3.org/2000/svg">
<path d="M20 3.33337C10.8333 3.33337 3.33333 10.8334 3.33333 20C3.33333 29.1667 10.8333 36.6667 20 36.6667C29.1667 36.6667 36.6667 29.1667 36.6667 20C36.6667 10.8334 29.1667 3.33337 20 3.33337ZM16 28.6667C15.6333 28.6667 15.1333 28.5334 14.6667 28.3334L13.7167 30.6667L11.8167 30L12.0833 29.35C14.0833 24.3167 16.3833 18.5834 25 16.6667C25 16.6667 15 16.6667 11.75 25.9167C11.75 25.9167 9.99999 24.1667 9.99999 22.1667C9.99999 20.1667 12 15.9167 17 14.9167C18.4167 14.6334 20 14.4167 21.5667 14.1667C25.5 13.6334 29.2833 13.1 30 11.6667C30 11.6667 27 28.6667 16 28.6667Z" fill="#2E8B57"/>
</svg>
