<svg width="27" height="30" viewBox="0 0 27 30" fill="none" xmlns="http://www.w3.org/2000/svg">
<path d="M20 3.75C20.9565 3.74995 21.8769 4.11541 22.5728 4.7716C23.2688 5.4278 23.6876 6.32513 23.7438 7.28L23.75 7.5V20H24.6875C25.4963 20 26.1625 20.615 26.2425 21.4025L26.25 21.5625V23.75C26.2501 24.7065 25.8846 25.6269 25.2284 26.3228C24.5722 27.0188 23.6749 27.4376 22.72 27.4938L22.5 27.5H10C9.04349 27.5001 8.12311 27.1346 7.42717 26.4784C6.73124 25.8222 6.31237 24.9249 6.25625 23.97L6.25 23.75V11.25H4.0625C3.67568 11.2502 3.30254 11.1069 3.01529 10.8478C2.72805 10.5887 2.54711 10.2323 2.5075 9.8475L2.5 9.6875V7.5C2.49995 6.54349 2.86541 5.62311 3.5216 4.92717C4.1778 4.23124 5.07513 3.81237 6.03 3.75625L6.25 3.75H20ZM20 6.25H8.75V23.75C8.75 24.0815 8.8817 24.3995 9.11612 24.6339C9.35054 24.8683 9.66848 25 10 25C10.3315 25 10.6495 24.8683 10.8839 24.6339C11.1183 24.3995 11.25 24.0815 11.25 23.75V21.5625C11.25 20.7 11.95 20 12.8125 20H21.25V7.5C21.25 7.16848 21.1183 6.85054 20.8839 6.61612C20.6495 6.3817 20.3315 6.25 20 6.25ZM23.75 22.5H13.75V23.75C13.75 24.1875 13.675 24.6087 13.5375 25H22.5C22.8315 25 23.1495 24.8683 23.3839 24.6339C23.6183 24.3995 23.75 24.0815 23.75 23.75V22.5ZM15 15C15.3315 15 15.6495 15.1317 15.8839 15.3661C16.1183 15.6005 16.25 15.9185 16.25 16.25C16.25 16.5815 16.1183 16.8995 15.8839 17.1339C15.6495 17.3683 15.3315 17.5 15 17.5H12.5C12.1685 17.5 11.8505 17.3683 11.6161 17.1339C11.3817 16.8995 11.25 16.5815 11.25 16.25C11.25 15.9185 11.3817 15.6005 11.6161 15.3661C11.8505 15.1317 12.1685 15 12.5 15H15ZM17.5 10C17.8315 10 18.1495 10.1317 18.3839 10.3661C18.6183 10.6005 18.75 10.9185 18.75 11.25C18.75 11.5815 18.6183 11.8995 18.3839 12.1339C18.1495 12.3683 17.8315 12.5 17.5 12.5H12.5C12.1685 12.5 11.8505 12.3683 11.6161 12.1339C11.3817 11.8995 11.25 11.5815 11.25 11.25C11.25 10.9185 11.3817 10.6005 11.6161 10.3661C11.8505 10.1317 12.1685 10 12.5 10H17.5ZM6.25 6.25C5.94383 6.25004 5.64833 6.36244 5.41954 6.56589C5.19074 6.76934 5.04457 7.04969 5.00875 7.35375L5 7.5V8.75H6.25V6.25Z" fill="#964B00"/>
</svg>
