<svg width="30" height="30" viewBox="0 0 30 30" fill="none" xmlns="http://www.w3.org/2000/svg">
<path d="M12.2401 6.11502C10.3463 5.23714 8.86829 3.65695 8.11882 1.70876C8.02882 1.44501 8.13007 1.35876 8.46632 1.30626C9.06075 1.23695 9.66316 1.30626 10.2263 1.50876C10.5339 1.6037 10.836 1.71554 11.1313 1.84376C11.388 1.96121 11.6679 2.01917 11.9502 2.01333C12.2324 2.00748 12.5097 1.93798 12.7613 1.81001C13.1888 1.60751 13.6051 1.39126 14.0476 1.21001C14.3895 1.05791 14.759 0.977861 15.1332 0.97485C15.5074 0.971839 15.8783 1.04593 16.2226 1.19251C17.5549 1.76617 19.0398 1.88221 20.4451 1.52251C20.7974 1.44217 21.1543 1.38372 21.5138 1.34751C22.1588 1.28251 22.3401 1.45251 22.1326 1.89751C21.3805 3.52357 20.1724 4.89624 18.6551 5.84876C18.5613 5.90876 18.4851 5.98377 18.3088 6.12377C18.4442 6.18138 18.5761 6.24691 18.7038 6.32002C21.7911 8.25695 24.3666 10.9088 26.2126 14.0513C26.9087 15.3822 27.3147 16.8457 27.4038 18.345C27.5144 19.7257 27.5728 21.11 27.5788 22.495C27.5824 23.6328 27.3005 24.7532 26.7588 25.7538C25.8376 27.46 24.0726 28.335 21.7063 28.6063C21.1754 28.658 20.6422 28.6814 20.1088 28.6763C16.7613 28.6825 13.4138 28.6925 10.0663 28.6738C8.39813 28.7385 6.7501 28.2909 5.34382 27.3913C4.33033 26.6764 3.62128 25.6079 3.35632 24.3963C2.99265 22.7808 2.92111 21.1132 3.14507 19.4725C3.22245 18.3802 3.37152 17.2941 3.59132 16.2213C4.24201 13.9544 5.48761 11.903 7.19882 10.28C8.67708 8.7298 10.3346 7.36101 12.1363 6.20251C12.1725 6.17525 12.2071 6.14604 12.2401 6.11502ZM15.5326 12.325C16.0639 10.3723 16.2476 8.34135 16.0751 6.32501C16.0626 6.12376 15.9313 6.05627 15.6701 6.06627C15.3334 6.09192 14.9952 6.09024 14.6588 6.06126C14.2264 5.99279 13.7838 6.03354 13.3711 6.17982C12.9585 6.32609 12.589 6.57324 12.2963 6.89877C9.8811 9.14138 8.38554 12.2016 8.10007 15.485C8.06257 15.8725 8.09507 16.265 8.09507 16.74C8.13757 16.6038 8.15757 16.5475 8.17132 16.49C8.66324 14.5522 9.42618 12.6934 10.4376 10.9688C11.4153 9.21703 12.7852 7.71534 14.4401 6.58126C14.5476 6.51001 14.6651 6.44752 14.7801 6.38127L14.9301 6.41001L15.5326 12.325ZM16.1888 6.10877C21.2538 10.4338 23.2263 15.655 24.2876 21.1538C24.3062 20.9351 24.3103 20.7155 24.3001 20.4963C24.2188 19.3963 24.1813 18.2938 24.0326 17.1988C23.6914 14.5617 22.7179 12.0461 21.1951 9.86627C20.2957 8.58178 19.1938 7.45169 17.9326 6.52002C17.6939 6.32061 17.412 6.17961 17.1093 6.10822C16.8066 6.03683 16.4914 6.03701 16.1888 6.10877Z" fill="#8F8686"/>
</svg>
